# xmcd
#
# Track frame offsets:
#	150
#	11176
#	23292
#	37146
#	50363
#	63584
#	75481
#
# Disc length: 1259 seconds
#
# Revision: 0
# Processed by: cddbd v1.5.2PL0 Copyright (c) Steve Scherf et al.
# Submitted via: EasyCDDAExtractor 12.0.5.1
#
DISCID=4e04e907
DTITLE=Walt Cassity - Almost Famous
DYEAR=2000
DGENRE=Country
TTITLE0=Not Enough Days In A Weekend
TTITLE1=Fire
TTITLE2=The Night Time
TTITLE3=Fire In Your Eyes
TTITLE4=The Act Of Love
TTITLE5=White Zone
TTITLE6=The Price Of Success
EXTD=
EXTT0=
EXTT1=
EXTT2=
EXTT3=
EXTT4=
EXTT5=
EXTT6=
PLAYORDER=
